# MagicaVoxel @ Ephtracy

# group
o desk

# material
mtllib room-1-desk-1-desk.mtl
usemtl palette

# normals
vn -1 0 0
vn 1 0 0
vn 0 0 1
vn 0 0 -1
vn 0 -1 0
vn 0 1 0

# texcoords
vt 0.568359 0.5
vt 0.626953 0.5
vt 0.724609 0.5
vt 0.759766 0.5

# verts
v 1 1.6 2.1
v 1 1.6 1.8
v 1 1.6 1.5
v 1 1.6 1.3
v 1 1.6 1.1
v 1 1.6 0.9
v 1 1.7 2.1
v 1 1.7 1.8
v 1 1.7 1.5
v 1 1.7 1.3
v 1 1.7 1.1
v 1 1.7 0.9
v 1.1 0.1 2
v 1.1 0.1 1
v 1.1 0.2 1.9
v 1.1 0.2 1.1
v 1.1 1.5 1.9
v 1.1 1.5 1.1
v 1.1 1.6 2.2
v 1.1 1.6 2.1
v 1.1 1.6 2
v 1.1 1.6 1.8
v 1.1 1.6 1.5
v 1.1 1.6 1.3
v 1.1 1.6 1.1
v 1.1 1.6 1
v 1.1 1.6 0.9
v 1.1 1.6 0.8
v 1.1 1.7 2.2
v 1.1 1.7 2.1
v 1.1 1.7 0.9
v 1.1 1.7 0.8
v 3.9 0.1 2
v 3.9 0.1 1
v 3.9 0.2 1.9
v 3.9 0.2 1.1
v 3.9 1.5 2
v 3.9 1.5 1.9
v 3.9 1.5 1.1
v 3.9 1.5 1
v 1.3 0.1 2
v 1.3 0.1 1
v 1.3 0.2 1.9
v 1.3 0.2 1.1
v 1.3 1.5 2
v 1.3 1.5 1.9
v 1.3 1.5 1.1
v 1.3 1.5 1
v 4.1 0.1 2
v 4.1 0.1 1
v 4.1 0.2 1.9
v 4.1 0.2 1.1
v 4.1 1.5 1.9
v 4.1 1.5 1.1
v 4.1 1.6 2.2
v 4.1 1.6 2.1
v 4.1 1.6 2
v 4.1 1.6 1.9
v 4.1 1.6 1.7
v 4.1 1.6 1.4
v 4.1 1.6 1.1
v 4.1 1.6 1
v 4.1 1.6 0.9
v 4.1 1.6 0.8
v 4.1 1.7 2.2
v 4.1 1.7 2.1
v 4.1 1.7 0.9
v 4.1 1.7 0.8
v 4.2 1.6 2.1
v 4.2 1.6 1.9
v 4.2 1.6 1.7
v 4.2 1.6 1.4
v 4.2 1.6 1.1
v 4.2 1.6 0.9
v 4.2 1.7 2.1
v 4.2 1.7 1.9
v 4.2 1.7 1.7
v 4.2 1.7 1.4
v 4.2 1.7 1.1
v 4.2 1.7 0.9
v 1.1 1.6 2.2
v 1.1 1.7 2.2
v 1.2 1.6 2.2
v 1.2 1.7 2.2
v 4.1 1.6 2.2
v 4.1 1.7 2.2
v 1 1.6 2.1
v 1 1.7 2.1
v 1.1 1.6 2.1
v 1.1 1.7 2.1
v 4.1 1.6 2.1
v 4.1 1.7 2.1
v 4.2 1.6 2.1
v 4.2 1.7 2.1
v 1.1 0.1 2
v 1.1 1.6 2
v 1.3 0.1 2
v 1.3 1.5 2
v 1.4 1.6 2
v 1.7 1.6 2
v 1.8 1.6 2
v 1.9 1.6 2
v 3.6 1.6 2
v 3.9 0.1 2
v 3.9 1.5 2
v 4 1.6 2
v 4.1 0.1 2
v 4.1 1.6 2
v 1.1 0.2 1.1
v 1.1 1.5 1.1
v 1.3 0.2 1.1
v 1.3 1.5 1.1
v 3.9 0.2 1.1
v 3.9 1.5 1.1
v 4.1 0.2 1.1
v 4.1 1.5 1.1
v 1.1 0.2 1.9
v 1.1 1.5 1.9
v 1.3 0.2 1.9
v 1.3 1.5 1.9
v 3.9 0.2 1.9
v 3.9 1.5 1.9
v 4.1 0.2 1.9
v 4.1 1.5 1.9
v 1.1 0.1 1
v 1.1 1.6 1
v 1.2 1.6 1
v 1.3 0.1 1
v 1.3 1.5 1
v 1.6 1.6 1
v 3.6 1.6 1
v 3.9 0.1 1
v 3.9 1.5 1
v 3.9 1.6 1
v 4.1 0.1 1
v 4.1 1.6 1
v 1 1.6 0.9
v 1 1.7 0.9
v 1.1 1.6 0.9
v 1.1 1.7 0.9
v 4.1 1.6 0.9
v 4.1 1.7 0.9
v 4.2 1.6 0.9
v 4.2 1.7 0.9
v 1.1 1.6 0.8
v 1.1 1.7 0.8
v 1.2 1.6 0.8
v 1.2 1.7 0.8
v 1.3 1.6 0.8
v 1.3 1.7 0.8
v 3.9 1.6 0.8
v 3.9 1.7 0.8
v 4 1.6 0.8
v 4 1.7 0.8
v 4.1 1.6 0.8
v 4.1 1.7 0.8
v 1.1 0.1 2
v 1.3 0.1 2
v 3.9 0.1 2
v 4.1 0.1 2
v 1.1 0.1 1
v 1.3 0.1 1
v 3.9 0.1 1
v 4.1 0.1 1
v 1.3 1.5 2
v 3.9 1.5 2
v 1.1 1.5 1.9
v 1.3 1.5 1.9
v 3.9 1.5 1.9
v 4.1 1.5 1.9
v 1.1 1.5 1.1
v 1.3 1.5 1.1
v 3.9 1.5 1.1
v 4.1 1.5 1.1
v 1.3 1.5 1
v 3.9 1.5 1
v 1.1 1.6 2.2
v 1.2 1.6 2.2
v 4.1 1.6 2.2
v 1 1.6 2.1
v 1.1 1.6 2.1
v 1.2 1.6 2.1
v 1.4 1.6 2.1
v 1.7 1.6 2.1
v 1.8 1.6 2.1
v 1.9 1.6 2.1
v 3.6 1.6 2.1
v 4 1.6 2.1
v 4.1 1.6 2.1
v 4.2 1.6 2.1
v 1.1 1.6 2
v 1.4 1.6 2
v 1.7 1.6 2
v 1.8 1.6 2
v 1.9 1.6 2
v 3.6 1.6 2
v 4 1.6 2
v 4.1 1.6 2
v 4.1 1.6 1.9
v 4.2 1.6 1.9
v 1 1.6 1.8
v 1.1 1.6 1.8
v 4.1 1.6 1.7
v 4.2 1.6 1.7
v 1 1.6 1.5
v 1.1 1.6 1.5
v 4.1 1.6 1.4
v 4.2 1.6 1.4
v 1 1.6 1.3
v 1.1 1.6 1.3
v 1 1.6 1.1
v 1.1 1.6 1.1
v 4.1 1.6 1.1
v 4.2 1.6 1.1
v 1.1 1.6 1
v 1.2 1.6 1
v 1.6 1.6 1
v 3.6 1.6 1
v 3.9 1.6 1
v 4.1 1.6 1
v 1 1.6 0.9
v 1.1 1.6 0.9
v 1.2 1.6 0.9
v 1.3 1.6 0.9
v 1.6 1.6 0.9
v 3.6 1.6 0.9
v 3.9 1.6 0.9
v 4 1.6 0.9
v 4.1 1.6 0.9
v 4.2 1.6 0.9
v 1.1 1.6 0.8
v 1.2 1.6 0.8
v 1.3 1.6 0.8
v 3.9 1.6 0.8
v 4 1.6 0.8
v 4.1 1.6 0.8
v 1.1 0.2 1.9
v 1.3 0.2 1.9
v 3.9 0.2 1.9
v 4.1 0.2 1.9
v 1.1 0.2 1.1
v 1.3 0.2 1.1
v 3.9 0.2 1.1
v 4.1 0.2 1.1
v 1.1 1.7 2.2
v 1.2 1.7 2.2
v 4.1 1.7 2.2
v 1 1.7 2.1
v 1.1 1.7 2.1
v 1.2 1.7 2.1
v 1.4 1.7 2.1
v 1.7 1.7 2.1
v 1.8 1.7 2.1
v 1.9 1.7 2.1
v 3.6 1.7 2.1
v 4 1.7 2.1
v 4.1 1.7 2.1
v 4.2 1.7 2.1
v 1.1 1.7 2
v 1.4 1.7 2
v 1.7 1.7 2
v 1.8 1.7 2
v 1.9 1.7 2
v 3.6 1.7 2
v 3.9 1.7 2
v 4 1.7 2
v 4.1 1.7 1.9
v 4.2 1.7 1.9
v 1 1.7 1.8
v 1.1 1.7 1.8
v 3.9 1.7 1.8
v 4.1 1.7 1.8
v 4 1.7 1.7
v 4.2 1.7 1.7
v 3.9 1.7 1.6
v 4 1.7 1.6
v 1 1.7 1.5
v 1.3 1.7 1.5
v 3.9 1.7 1.5
v 4.1 1.7 1.5
v 1.2 1.7 1.4
v 1.3 1.7 1.4
v 4.1 1.7 1.4
v 4.2 1.7 1.4
v 1 1.7 1.3
v 1.2 1.7 1.3
v 1.1 1.7 1.2
v 1.2 1.7 1.2
v 4 1.7 1.2
v 4.1 1.7 1.2
v 1 1.7 1.1
v 1.1 1.7 1.1
v 2.1 1.7 1.1
v 3 1.7 1.1
v 3.3 1.7 1.1
v 3.6 1.7 1.1
v 4.1 1.7 1.1
v 4.2 1.7 1.1
v 1.6 1.7 1
v 2.1 1.7 1
v 3 1.7 1
v 3.3 1.7 1
v 3.9 1.7 1
v 4 1.7 1
v 1 1.7 0.9
v 1.1 1.7 0.9
v 1.2 1.7 0.9
v 1.3 1.7 0.9
v 1.6 1.7 0.9
v 3.6 1.7 0.9
v 3.9 1.7 0.9
v 4 1.7 0.9
v 4.1 1.7 0.9
v 4.2 1.7 0.9
v 1.1 1.7 0.8
v 1.2 1.7 0.8
v 1.3 1.7 0.8
v 3.9 1.7 0.8
v 4 1.7 0.8
v 4.1 1.7 0.8

# faces
f 7/3/1 2/3/1 1/3/1
f 8/2/1 3/2/1 2/2/1
f 8/3/1 2/3/1 7/3/1
f 9/3/1 4/3/1 3/3/1
f 9/2/1 3/2/1 8/2/1
f 10/2/1 5/2/1 4/2/1
f 10/3/1 4/3/1 9/3/1
f 11/3/1 6/3/1 5/3/1
f 11/2/1 5/2/1 10/2/1
f 12/3/1 6/3/1 11/3/1
f 15/1/1 14/1/1 13/1/1
f 16/1/1 14/1/1 15/1/1
f 17/1/1 15/1/1 13/1/1
f 18/1/1 14/1/1 16/1/1
f 21/1/1 17/1/1 13/1/1
f 21/1/1 18/1/1 17/1/1
f 22/1/1 18/1/1 21/1/1
f 23/1/1 18/1/1 22/1/1
f 24/1/1 18/1/1 23/1/1
f 25/1/1 14/1/1 18/1/1
f 25/1/1 18/1/1 24/1/1
f 26/1/1 14/1/1 25/1/1
f 29/3/1 20/3/1 19/3/1
f 30/3/1 20/3/1 29/3/1
f 31/3/1 28/3/1 27/3/1
f 32/3/1 28/3/1 31/3/1
f 35/1/1 34/1/1 33/1/1
f 36/1/1 34/1/1 35/1/1
f 37/1/1 35/1/1 33/1/1
f 38/1/1 35/1/1 37/1/1
f 39/1/1 34/1/1 36/1/1
f 40/1/1 34/1/1 39/1/1
f 41/1/2 42/1/2 43/1/2
f 43/1/2 42/1/2 44/1/2
f 41/1/2 43/1/2 45/1/2
f 45/1/2 43/1/2 46/1/2
f 44/1/2 42/1/2 47/1/2
f 47/1/2 42/1/2 48/1/2
f 49/1/2 50/1/2 51/1/2
f 51/1/2 50/1/2 52/1/2
f 49/1/2 51/1/2 53/1/2
f 52/1/2 50/1/2 54/1/2
f 49/1/2 53/1/2 57/1/2
f 53/1/2 54/1/2 57/1/2
f 57/1/2 54/1/2 58/1/2
f 58/1/2 54/1/2 59/1/2
f 59/1/2 54/1/2 60/1/2
f 54/1/2 50/1/2 61/1/2
f 60/1/2 54/1/2 61/1/2
f 61/1/2 50/1/2 62/1/2
f 55/4/2 56/4/2 65/4/2
f 65/4/2 56/4/2 66/4/2
f 63/3/2 64/3/2 67/3/2
f 67/3/2 64/3/2 68/3/2
f 69/3/2 70/3/2 75/3/2
f 70/2/2 71/2/2 76/2/2
f 75/3/2 70/3/2 76/3/2
f 71/3/2 72/3/2 77/3/2
f 76/2/2 71/2/2 77/2/2
f 72/2/2 73/2/2 78/2/2
f 77/3/2 72/3/2 78/3/2
f 73/3/2 74/3/2 79/3/2
f 78/2/2 73/2/2 79/2/2
f 79/3/2 74/3/2 80/3/2
f 83/3/3 82/3/3 81/3/3
f 84/3/3 82/3/3 83/3/3
f 85/4/3 84/4/3 83/4/3
f 86/4/3 84/4/3 85/4/3
f 89/3/3 88/3/3 87/3/3
f 90/3/3 88/3/3 89/3/3
f 93/3/3 92/3/3 91/3/3
f 94/3/3 92/3/3 93/3/3
f 97/1/3 96/1/3 95/1/3
f 98/1/3 96/1/3 97/1/3
f 99/1/3 96/1/3 98/1/3
f 100/1/3 99/1/3 98/1/3
f 101/1/3 100/1/3 98/1/3
f 102/1/3 101/1/3 98/1/3
f 103/1/3 102/1/3 98/1/3
f 105/1/3 103/1/3 98/1/3
f 106/1/3 103/1/3 105/1/3
f 106/1/3 105/1/3 104/1/3
f 107/1/3 106/1/3 104/1/3
f 108/1/3 106/1/3 107/1/3
f 111/1/3 110/1/3 109/1/3
f 112/1/3 110/1/3 111/1/3
f 115/1/3 114/1/3 113/1/3
f 116/1/3 114/1/3 115/1/3
f 117/1/4 118/1/4 119/1/4
f 119/1/4 118/1/4 120/1/4
f 121/1/4 122/1/4 123/1/4
f 123/1/4 122/1/4 124/1/4
f 125/1/4 126/1/4 127/1/4
f 125/1/4 127/1/4 128/1/4
f 128/1/4 127/1/4 129/1/4
f 129/1/4 127/1/4 130/1/4
f 129/1/4 130/1/4 131/1/4
f 129/1/4 131/1/4 133/1/4
f 133/1/4 131/1/4 134/1/4
f 132/1/4 133/1/4 135/1/4
f 133/1/4 134/1/4 135/1/4
f 135/1/4 134/1/4 136/1/4
f 137/3/4 138/3/4 139/3/4
f 139/3/4 138/3/4 140/3/4
f 141/3/4 142/3/4 143/3/4
f 143/3/4 142/3/4 144/3/4
f 145/3/4 146/3/4 147/3/4
f 147/3/4 146/3/4 148/3/4
f 147/4/4 148/4/4 149/4/4
f 149/4/4 148/4/4 150/4/4
f 149/3/4 150/3/4 151/3/4
f 151/3/4 150/3/4 152/3/4
f 151/4/4 152/4/4 153/4/4
f 153/4/4 152/4/4 154/4/4
f 153/3/4 154/3/4 155/3/4
f 155/3/4 154/3/4 156/3/4
f 161/1/5 158/1/5 157/1/5
f 162/1/5 158/1/5 161/1/5
f 163/1/5 160/1/5 159/1/5
f 164/1/5 160/1/5 163/1/5
f 168/1/5 166/1/5 165/1/5
f 169/1/5 166/1/5 168/1/5
f 171/1/5 168/1/5 167/1/5
f 171/1/5 170/1/5 169/1/5
f 171/1/5 169/1/5 168/1/5
f 172/1/5 170/1/5 171/1/5
f 173/1/5 170/1/5 172/1/5
f 174/1/5 170/1/5 173/1/5
f 175/1/5 173/1/5 172/1/5
f 176/1/5 173/1/5 175/1/5
f 181/3/5 178/3/5 177/3/5
f 182/4/5 179/4/5 178/4/5
f 182/3/5 178/3/5 181/3/5
f 183/4/5 179/4/5 182/4/5
f 184/4/5 179/4/5 183/4/5
f 185/4/5 179/4/5 184/4/5
f 186/4/5 179/4/5 185/4/5
f 187/4/5 179/4/5 186/4/5
f 188/4/5 179/4/5 187/4/5
f 189/4/5 179/4/5 188/4/5
f 191/3/5 181/3/5 180/3/5
f 191/3/5 182/3/5 181/3/5
f 191/3/5 183/3/5 182/3/5
f 192/2/5 184/2/5 183/2/5
f 192/3/5 183/3/5 191/3/5
f 193/3/5 185/3/5 184/3/5
f 193/2/5 184/2/5 192/2/5
f 194/2/5 186/2/5 185/2/5
f 194/3/5 185/3/5 193/3/5
f 195/3/5 187/3/5 186/3/5
f 195/2/5 186/2/5 194/2/5
f 196/2/5 188/2/5 187/2/5
f 196/3/5 187/3/5 195/3/5
f 197/3/5 190/3/5 189/3/5
f 197/2/5 188/2/5 196/2/5
f 197/3/5 189/3/5 188/3/5
f 198/3/5 190/3/5 197/3/5
f 199/3/5 190/3/5 198/3/5
f 200/3/5 190/3/5 199/3/5
f 201/3/5 191/3/5 180/3/5
f 202/3/5 191/3/5 201/3/5
f 203/2/5 200/2/5 199/2/5
f 204/2/5 200/2/5 203/2/5
f 205/2/5 202/2/5 201/2/5
f 206/2/5 202/2/5 205/2/5
f 207/3/5 204/3/5 203/3/5
f 208/3/5 204/3/5 207/3/5
f 209/3/5 206/3/5 205/3/5
f 210/3/5 206/3/5 209/3/5
f 211/2/5 210/2/5 209/2/5
f 212/2/5 210/2/5 211/2/5
f 213/2/5 208/2/5 207/2/5
f 214/2/5 208/2/5 213/2/5
f 215/3/5 212/3/5 211/3/5
f 220/3/5 214/3/5 213/3/5
f 221/3/5 215/3/5 211/3/5
f 221/3/5 216/3/5 215/3/5
f 222/3/5 216/3/5 221/3/5
f 223/2/5 217/2/5 216/2/5
f 223/3/5 216/3/5 222/3/5
f 224/2/5 217/2/5 223/2/5
f 225/3/5 218/3/5 217/3/5
f 225/2/5 217/2/5 224/2/5
f 226/2/5 219/2/5 218/2/5
f 226/3/5 218/3/5 225/3/5
f 227/3/5 220/3/5 219/3/5
f 227/2/5 219/2/5 226/2/5
f 228/3/5 220/3/5 227/3/5
f 229/3/5 214/3/5 220/3/5
f 229/3/5 220/3/5 228/3/5
f 230/3/5 214/3/5 229/3/5
f 231/3/5 223/3/5 222/3/5
f 232/4/5 224/4/5 223/4/5
f 232/3/5 223/3/5 231/3/5
f 233/3/5 225/3/5 224/3/5
f 233/4/5 224/4/5 232/4/5
f 233/3/5 226/3/5 225/3/5
f 233/3/5 227/3/5 226/3/5
f 234/4/5 228/4/5 227/4/5
f 234/3/5 227/3/5 233/3/5
f 235/3/5 229/3/5 228/3/5
f 235/4/5 228/4/5 234/4/5
f 236/3/5 229/3/5 235/3/5
f 237/1/6 238/1/6 241/1/6
f 241/1/6 238/1/6 242/1/6
f 239/1/6 240/1/6 243/1/6
f 243/1/6 240/1/6 244/1/6
f 245/3/6 246/3/6 249/3/6
f 246/4/6 247/4/6 250/4/6
f 249/3/6 246/3/6 250/3/6
f 250/4/6 247/4/6 251/4/6
f 251/4/6 247/4/6 252/4/6
f 252/4/6 247/4/6 253/4/6
f 253/4/6 247/4/6 254/4/6
f 254/4/6 247/4/6 255/4/6
f 255/4/6 247/4/6 256/4/6
f 256/4/6 247/4/6 257/4/6
f 248/3/6 249/3/6 259/3/6
f 249/3/6 250/3/6 259/3/6
f 250/3/6 251/3/6 259/3/6
f 251/2/6 252/2/6 260/2/6
f 259/3/6 251/3/6 260/3/6
f 252/3/6 253/3/6 261/3/6
f 260/2/6 252/2/6 261/2/6
f 253/2/6 254/2/6 262/2/6
f 261/3/6 253/3/6 262/3/6
f 254/3/6 255/3/6 263/3/6
f 262/2/6 254/2/6 263/2/6
f 255/2/6 256/2/6 264/2/6
f 263/3/6 255/3/6 264/3/6
f 264/2/6 256/2/6 265/2/6
f 257/3/6 258/3/6 266/3/6
f 265/2/6 256/2/6 266/2/6
f 256/3/6 257/3/6 266/3/6
f 265/3/6 266/3/6 267/3/6
f 266/3/6 258/3/6 267/3/6
f 267/3/6 258/3/6 268/3/6
f 248/3/6 259/3/6 269/3/6
f 264/2/6 265/2/6 270/2/6
f 269/3/6 259/3/6 270/3/6
f 263/2/6 264/2/6 270/2/6
f 262/2/6 263/2/6 270/2/6
f 259/2/6 260/2/6 270/2/6
f 261/2/6 262/2/6 270/2/6
f 260/2/6 261/2/6 270/2/6
f 265/3/6 267/3/6 271/3/6
f 270/2/6 265/2/6 271/2/6
f 267/2/6 268/2/6 272/2/6
f 271/3/6 267/3/6 272/3/6
f 270/2/6 271/2/6 273/2/6
f 269/2/6 270/2/6 273/2/6
f 271/2/6 272/2/6 273/2/6
f 272/2/6 268/2/6 274/2/6
f 273/2/6 272/2/6 274/2/6
f 269/2/6 273/2/6 275/2/6
f 273/3/6 274/3/6 276/3/6
f 275/2/6 273/2/6 276/2/6
f 269/2/6 275/2/6 277/2/6
f 277/2/6 275/2/6 278/2/6
f 275/3/6 276/3/6 279/3/6
f 278/2/6 275/2/6 279/2/6
f 276/3/6 274/3/6 280/3/6
f 279/3/6 276/3/6 280/3/6
f 277/3/6 278/3/6 281/3/6
f 278/2/6 279/2/6 282/2/6
f 281/3/6 278/3/6 282/3/6
f 279/2/6 280/2/6 282/2/6
f 280/3/6 274/3/6 283/3/6
f 282/2/6 280/2/6 283/2/6
f 283/3/6 274/3/6 284/3/6
f 277/3/6 281/3/6 285/3/6
f 281/2/6 282/2/6 286/2/6
f 285/3/6 281/3/6 286/3/6
f 282/2/6 283/2/6 286/2/6
f 283/2/6 284/2/6 286/2/6
f 285/2/6 286/2/6 287/2/6
f 286/2/6 284/2/6 288/2/6
f 287/2/6 286/2/6 288/2/6
f 288/2/6 284/2/6 289/2/6
f 289/2/6 284/2/6 290/2/6
f 285/2/6 287/2/6 291/2/6
f 287/3/6 288/3/6 292/3/6
f 291/2/6 287/2/6 292/2/6
f 288/2/6 289/2/6 293/2/6
f 293/2/6 289/2/6 294/2/6
f 294/2/6 289/2/6 295/2/6
f 295/2/6 289/2/6 296/2/6
f 290/2/6 284/2/6 297/2/6
f 289/3/6 290/3/6 297/3/6
f 297/2/6 284/2/6 298/2/6
f 288/2/6 293/2/6 299/2/6
f 293/3/6 294/3/6 300/3/6
f 299/2/6 293/2/6 300/2/6
f 294/2/6 295/2/6 301/2/6
f 300/3/6 294/3/6 301/3/6
f 295/3/6 296/3/6 302/3/6
f 301/2/6 295/2/6 302/2/6
f 296/2/6 289/2/6 303/2/6
f 289/3/6 297/3/6 304/3/6
f 303/2/6 289/2/6 304/2/6
f 297/3/6 298/3/6 304/3/6
f 291/3/6 292/3/6 305/3/6
f 292/3/6 288/3/6 306/3/6
f 305/3/6 292/3/6 306/3/6
f 288/2/6 299/2/6 307/2/6
f 306/3/6 288/3/6 307/3/6
f 307/2/6 299/2/6 308/2/6
f 300/3/6 301/3/6 309/3/6
f 308/2/6 299/2/6 309/2/6
f 299/3/6 300/3/6 309/3/6
f 301/3/6 302/3/6 309/3/6
f 302/3/6 296/3/6 310/3/6
f 309/3/6 302/3/6 310/3/6
f 296/2/6 303/2/6 310/2/6
f 303/3/6 304/3/6 311/3/6
f 310/2/6 303/2/6 311/2/6
f 304/3/6 298/3/6 312/3/6
f 311/3/6 304/3/6 312/3/6
f 312/3/6 298/3/6 313/3/6
f 313/3/6 298/3/6 314/3/6
f 306/3/6 307/3/6 315/3/6
f 307/4/6 308/4/6 316/4/6
f 315/3/6 307/3/6 316/3/6
f 308/3/6 309/3/6 317/3/6
f 316/4/6 308/4/6 317/4/6
f 310/3/6 311/3/6 317/3/6
f 309/3/6 310/3/6 317/3/6
f 311/4/6 312/4/6 318/4/6
f 317/3/6 311/3/6 318/3/6
f 312/3/6 313/3/6 319/3/6
f 318/4/6 312/4/6 319/4/6
f 319/3/6 313/3/6 320/3/6
